<?xml version="1.0" encoding="UTF-8" standalone="no"?>
<!-- Created with Inkscape (http://www.inkscape.org/) -->

<svg
   xmlns:dc="http://purl.org/dc/elements/1.1/"
   xmlns:cc="http://creativecommons.org/ns#"
   xmlns:rdf="http://www.w3.org/1999/02/22-rdf-syntax-ns#"
   xmlns:svg="http://www.w3.org/2000/svg"
   xmlns="http://www.w3.org/2000/svg"
   xmlns:sodipodi="http://sodipodi.sourceforge.net/DTD/sodipodi-0.dtd"
   xmlns:inkscape="http://www.inkscape.org/namespaces/inkscape"
   width="297mm"
   height="210mm"
   viewBox="0 0 1052.3622 744.09448"
   id="svg2"
   version="1.1"
   inkscape:version="0.91 r13725"
   sodipodi:docname="arc.svg"
   inkscape:export-filename="C:\Users\Esdras\Documents\disciplinas\fisica-cc\2016.2\aulas\04\images\arc.png"
   inkscape:export-xdpi="90"
   inkscape:export-ydpi="90">
  <defs
     id="defs4" />
  <sodipodi:namedview
     id="base"
     pagecolor="#ffffff"
     bordercolor="#666666"
     borderopacity="1.0"
     inkscape:pageopacity="0.0"
     inkscape:pageshadow="2"
     inkscape:zoom="0.56148316"
     inkscape:cx="491.34411"
     inkscape:cy="366.45397"
     inkscape:document-units="px"
     inkscape:current-layer="layer1"
     showgrid="false"
     inkscape:window-width="1366"
     inkscape:window-height="706"
     inkscape:window-x="-8"
     inkscape:window-y="-8"
     inkscape:window-maximized="1" />
  <metadata
     id="metadata7">
    <rdf:RDF>
      <cc:Work
         rdf:about="">
        <dc:format>image/svg+xml</dc:format>
        <dc:type
           rdf:resource="http://purl.org/dc/dcmitype/StillImage" />
        <dc:title />
      </cc:Work>
    </rdf:RDF>
  </metadata>
  <g
     inkscape:label="Camada 1"
     inkscape:groupmode="layer"
     id="layer1"
     transform="translate(0,-308.26772)">
    <path
       style="fill:#000000"
       d="m 540.54856,923.18875 0,-10.56305 4.96786,-0.14133 c 6.2564,-0.17788 8.91502,1.9927 8.91502,7.27852 0,5.92211 -3.42854,10.03458 -7.48205,8.97458 -2.53633,-0.66323 -3.31574,-0.17581 -3.31574,2.07362 0,1.61737 -0.69414,2.94067 -1.54255,2.94067 -0.87818,0 -1.54254,-4.54937 -1.54254,-10.56304 z m 10.02652,-2.56969 c 0,-5.12067 -0.51594,-6.14904 -3.08508,-6.14904 -2.24171,0 -3.22195,1.19526 -3.58574,4.3723 -0.68764,6.00495 0.74993,9.06605 3.96671,8.44654 2.0378,-0.39243 2.70411,-2.03594 2.70411,-6.6698 z m -64.17717,5.99645 c -1.14509,-1.37975 -2.082,-5.10987 -2.082,-8.28913 0,-6.44165 2.77209,-10.79779 6.87133,-10.79779 4.13199,0 6.59086,4.02836 6.59086,10.79779 0,9.64347 -6.39212,14.29938 -11.38019,8.28913 z m 8.44977,-3.84551 c 2.70199,-7.68309 -3.14777,-17.88591 -6.87758,-11.99548 -1.58685,2.50611 -1.84251,10.80133 -0.44511,14.44285 1.40009,3.64861 5.68215,2.21747 7.32269,-2.44737 z m 8.67989,4.81163 c 0,-0.84841 0.69415,-1.54254 1.54254,-1.54254 0.84841,0 1.54254,0.69413 1.54254,1.54254 0,0.84839 -0.69413,1.54254 -1.54254,1.54254 -0.84839,0 -1.54254,-0.69415 -1.54254,-1.54254 z m 10.2328,0.33378 c -0.41088,-0.66483 1.10999,-1.18543 3.37969,-1.15692 5.89047,0.0741 6.83332,-6.34507 1.14179,-7.77353 -3.27407,-0.82175 -3.95649,-1.89541 -3.95649,-6.2247 0,-4.92145 0.29729,-5.21797 5.01327,-5.00055 4.66607,0.21512 4.71948,0.27562 0.77127,0.87372 -3.28952,0.49833 -4.242,1.48551 -4.242,4.39651 0,2.22503 0.89751,3.7539 2.20362,3.7539 2.41096,0 7.05163,4.06059 7.05163,6.17016 0,4.10769 -9.36358,8.19615 -11.36278,4.96141 z m 45.29869,-7.27522 c 0,-4.66619 0.69415,-8.48398 1.54254,-8.48398 0.84841,0 1.54254,3.81779 1.54254,8.48398 0,4.66619 -0.69413,8.48398 -1.54254,8.48398 -0.84839,0 -1.54254,-3.81779 -1.54254,-8.48398 z m 0,-13.1116 c 0,-0.84841 0.69415,-1.54254 1.54254,-1.54254 0.84841,0 1.54254,0.69413 1.54254,1.54254 0,0.84839 -0.69413,1.54254 -1.54254,1.54254 -0.84839,0 -1.54254,-0.69415 -1.54254,-1.54254 z m 143.45633,-4.62763 c -6.6387,-6.63871 -1.75052,-18.51049 7.62167,-18.51049 2.49513,0 4.95913,0.68369 5.47558,1.51931 0.58229,0.94217 -0.84661,1.16219 -3.76149,0.57922 -2.82011,-0.56402 -5.62761,-0.17063 -7.01811,0.98338 -2.67127,2.21694 -3.05325,9.62927 -0.72084,13.98745 1.78492,3.33516 7.60118,3.96646 10.43501,1.13263 1.2384,-1.23838 1.85105,-1.29301 1.85105,-0.16503 0,4.32885 -9.69678,4.65962 -13.88287,0.47353 z m 19.39196,0.66108 c -4.48811,-4.48811 -1.89798,-14.54395 3.74616,-14.54395 2.83925,0 6.17017,4.1089 6.17017,7.6113 0,0.90417 -2.13334,1.64395 -4.74072,1.64395 -3.69277,0 -4.62112,0.59673 -4.19964,2.69944 0.35535,1.77271 1.94332,2.68165 4.62548,2.64759 2.24641,-0.0285 3.74821,0.49209 3.33732,1.15692 -1.26042,2.03939 -6.38016,1.34338 -8.93877,-1.21525 z m 6.53759,-9.5307 c -0.28591,-1.48469 -1.54206,-2.69944 -2.79143,-2.69944 -1.24937,0 -2.5055,1.21475 -2.79142,2.69944 -0.36476,1.89401 0.46813,2.69946 2.79142,2.69946 2.32331,0 3.15618,-0.80545 2.79143,-2.69946 z m 8.00636,3.62482 0,-8.32989 5.78453,0.23154 5.78453,0.23155 0.16301,8.48398 c 0.1393,7.24881 0.069,7.47339 -0.48301,1.54254 -0.35531,-3.81778 -1.26692,-7.57145 -2.02581,-8.34147 -2.57192,-2.6097 -6.13815,2.34639 -6.13815,8.53034 0,3.28972 -0.69415,5.9813 -1.54254,5.9813 -0.84841,0 -1.54254,-3.74845 -1.54254,-8.32989 z m 21.08141,7.30153 c -0.56561,-0.5656 -1.02837,-4.03631 -1.02837,-7.71271 0,-3.6764 -0.72151,-6.68435 -1.60336,-6.68435 -0.9244,0 -0.76111,-0.9075 0.38563,-2.14312 1.09396,-1.1787 2.33607,-1.62984 2.76027,-1.00256 0.4242,0.62732 1.81249,1.5369 3.08509,2.02135 1.84302,0.70157 1.76456,0.90555 -0.38564,1.00254 -2.09479,0.0946 -2.69945,1.48672 -2.69945,6.21532 0,4.17601 0.84947,6.58827 2.69945,7.66579 2.28619,1.33158 2.32555,1.57947 0.2571,1.61919 -1.34331,0.0258 -2.90513,-0.41586 -3.47072,-0.98145 z m 10.65088,-1.39565 c -4.48812,-4.48811 -1.89798,-14.54395 3.74617,-14.54395 2.83924,0 6.17016,4.1089 6.17016,7.6113 0,0.90417 -2.13333,1.64395 -4.74072,1.64395 -3.69277,0 -4.62112,0.59673 -4.19963,2.69944 0.35534,1.77271 1.94331,2.68165 4.62548,2.64759 2.2464,-0.0285 3.7482,0.49209 3.33732,1.15692 -1.26043,2.03939 -6.38017,1.34338 -8.93878,-1.21525 z m 6.53759,-9.5307 c -0.28592,-1.48469 -1.54206,-2.69944 -2.79142,-2.69944 -1.24937,0 -2.50551,1.21475 -2.79143,2.69944 -0.36475,1.89401 0.46813,2.69946 2.79143,2.69946 2.3233,0 3.15617,-0.80545 2.79142,-2.69946 z m 8.00637,3.70548 0,-8.24924 5.01325,-0.0879 c 4.44329,-0.0778 4.61867,0.0652 1.54255,1.25811 -2.89076,1.12104 -3.47072,2.51422 -3.47072,8.33712 0,3.84512 -0.69415,6.99113 -1.54254,6.99113 -0.8484,0 -1.54254,-3.71215 -1.54254,-8.24923 z m -269.17346,-1.71154 c -45.19319,-6.25235 -85.79014,-27.11291 -118.47252,-60.8766 -29.64102,-30.62169 -49.19426,-69.16041 -55.82131,-110.02178 -4.0958,-25.25403 -2.69049,-61.65555 3.1637,-81.94888 1.19275,-4.13459 1.85141,-8.03069 1.46371,-8.65801 -0.3877,-0.62732 -3.81808,-2.01221 -7.62307,-3.07756 -6.60908,-1.85041 -7.29996,-1.72146 -15.46515,2.88668 l -8.54701,4.82364 0,-4.64081 0,-4.64082 -24.02249,0 c -22.05635,0 -23.97822,0.22095 -23.4814,2.69944 0.35957,1.79379 1.94413,2.67952 4.72304,2.64003 2.53002,-0.036 3.62421,0.49828 2.77003,1.35247 -2.58487,2.58487 -9.24526,-0.33665 -10.29406,-4.51536 -2.18216,-8.69451 6.29828,-15.63494 10.19881,-8.34674 1.51552,2.83176 3.22981,3.08508 20.87857,3.08508 l 19.2275,0 0,-4.0036 0,-4.00361 8.51128,4.80348 8.51129,4.80347 1.29521,-3.49931 c 0.71238,-1.92463 2.82955,-7.66418 4.70489,-12.75457 15.76673,-42.79739 50.30521,-84.35682 90.61442,-109.03439 35.02785,-21.44429 68.66453,-31.49625 111.18832,-33.22736 l 21.98121,-0.89484 0,-10.3273 0,-10.32727 4.96785,-0.14134 c 6.2564,-0.17788 8.91502,1.9927 8.91502,7.27852 0,5.81238 -3.43576,10.03269 -7.33707,9.01248 -2.43687,-0.63726 -3.33333,0.0212 -3.87312,2.84485 -0.60113,3.14475 -0.0956,3.67403 3.50933,3.67403 2.31641,0 10.37636,1.07111 17.91096,2.38022 73.77215,12.81777 138.7915,66.1368 166.24374,136.32795 2.84635,7.27768 5.61319,14.51147 6.14853,16.07509 0.90127,2.63244 1.60105,2.4887 9.45067,-1.94135 l 8.47733,-4.78431 0,3.86953 0,3.86955 25.36089,0 c 14.82087,0 25.74745,0.62546 26.291,1.50493 0.58669,0.94928 -8.6348,1.66122 -24.97526,1.92818 -25.54413,0.41734 -25.91224,0.47163 -26.39828,3.89395 -0.61449,4.32664 -0.87786,4.31653 -8.82124,-0.3386 l -6.50011,-3.80931 -8.06282,3.88962 c -6.88622,3.32202 -7.92779,4.38441 -7.13743,7.28004 7.08608,25.9616 7.27743,71.9336 0.41221,99.02798 -8.68153,34.2626 -24.31227,64.14005 -46.30053,88.50131 l -7.48848,8.29666 14.35051,14.41044 c 7.89277,7.92574 13.84353,14.91742 13.22388,15.53707 -0.61967,0.61967 -7.6517,-5.37127 -15.62674,-13.31314 l -14.50007,-14.43979 -8.65192,7.90739 c -10.09028,9.22195 -29.90214,22.6119 -43.54898,29.43279 -37.09194,18.53916 -79.47738,25.34959 -121.54484,19.5297 z m 28.53701,-96.43497 0,-95.59796 -4.5183,-2.3365 c -2.48506,-1.28507 -4.96136,-3.7324 -5.50285,-5.43851 -0.9724,-3.06376 -2.1652,-3.102 -96.74648,-3.102 l -95.76194,0 0.89016,13.49723 c 5.18722,78.65049 58.00014,148.32706 133.50389,176.13292 18.03768,6.64275 41.6251,11.16048 63.89354,12.23757 l 4.24198,0.2052 0,-95.59795 z m 42.00907,90.79287 c 17.9994,-3.54337 32.88457,-8.72633 50.54342,-17.59906 14.698,-7.38504 36.7583,-22.58504 44.75961,-30.84029 l 5.28143,-5.44905 -60.82307,-60.8377 C 566.51823,718.29995 562.88,714.96281 560.26805,717.32659 c -1.52375,1.37898 -3.15715,2.12051 -3.62979,1.64788 -0.99963,-0.99965 -5.36529,-17.0447 -4.79326,-17.61669 0.44921,-0.44923 16.93597,4.21203 17.87385,5.05339 0.34829,0.31246 -0.49498,1.81482 -1.87395,3.33856 -2.3638,2.61198 0.97969,6.25197 58.45588,63.6393 l 60.96308,60.86884 8.14983,-8.67594 c 27.64241,-29.4269 47.26288,-76.2135 49.89111,-118.96936 l 0.82967,-13.49723 -95.60393,0 -95.6039,0 -1.77118,3.88732 c -0.97416,2.13804 -3.51508,4.55036 -5.64651,5.36072 l -3.8753,1.47339 0,95.71183 0,95.71186 12.72597,-0.96077 c 6.99927,-0.52841 19.48252,-2.29084 27.74055,-3.91651 z M 532.85813,686.13229 c 1.14738,-2.14389 3.69417,-4.30157 5.65956,-4.79486 1.96537,-0.49328 3.57341,-1.17921 3.57341,-1.52429 0,-0.34507 -2.14869,-4.43467 -4.77486,-9.08801 l -4.77489,-8.46062 4.00361,0 4.0036,0 0,-26.99447 c 0,-22.96672 0.34524,-26.99447 2.31382,-26.99447 1.96857,0 2.31381,4.02775 2.31381,26.99447 l 0,26.99447 4.0036,0 4.00361,0 -4.77489,8.46062 c -2.62617,4.65334 -4.77486,8.74294 -4.77486,9.08801 0,0.34508 1.60804,1.03101 3.57341,1.52429 1.96539,0.49329 4.51218,2.65097 5.65956,4.79486 l 2.08614,3.89797 95.60954,0 95.60956,0 -0.99681,-14.26852 c -0.8866,-12.69142 -4.61189,-34.58021 -6.14638,-36.11472 -0.31651,-0.3165 -3.62893,0.80992 -7.36094,2.50316 -3.73203,1.69325 -7.47963,3.09292 -8.32803,3.11036 -0.84839,0.0174 -2.79652,-4.30569 -4.32914,-9.60701 -1.53263,-5.30129 -5.831,-15.94549 -9.55194,-23.65372 -19.64064,-40.68725 -57.76172,-74.02882 -102.58078,-89.71947 -18.6801,-6.5397 -56.9143,-13.12771 -54.6172,-9.41092 0.44568,0.72112 -0.966,1.31112 -3.13706,1.31112 l -3.94739,0 0,29.30829 c 0,25.02344 -0.33828,29.30828 -2.31381,29.30828 -1.97554,0 -2.31382,-4.28484 -2.31382,-29.30828 l 0,-29.30829 -3.94739,0 c -2.17106,0 -3.57195,-0.60745 -3.1131,-1.3499 1.04904,-1.69737 -10.09138,-0.70356 -26.00755,2.32005 -54.01331,10.26102 -101.16122,46.48349 -126.23278,96.98123 -3.79096,7.63557 -8.07989,17.52712 -9.53095,21.9812 -1.45104,4.45411 -3.10308,8.09799 -3.67119,8.09758 -0.56812,-4.3e-4 -4.68464,-1.38871 -9.14783,-3.08508 -4.4632,-1.69639 -8.74776,-3.08431 -9.52125,-3.08431 -3.14904,0 -9.27904,30.14652 -9.3314,45.8906 l -0.027,8.09835 95.3769,0 95.3769,0 2.08615,-3.89797 z m -23.93166,-94.05341 0,-8.48398 5.06165,0 c 5.64686,0 7.9901,3.29624 4.94856,6.96109 -1.90885,2.30002 -0.43343,5.66271 3.87266,8.82634 0.89365,0.65656 0.51665,1.14323 -0.89626,1.15692 -1.34132,0.0115 -3.36751,-1.71175 -4.50264,-3.83275 -1.13513,-2.12099 -2.72163,-3.85635 -3.52556,-3.85635 -0.80395,0 -1.12998,1.73536 -0.72453,3.85635 0.53965,2.82293 0.0711,3.85636 -1.74834,3.85636 -1.98441,0 -2.48554,-1.7105 -2.48554,-8.48398 z m 8.48397,-3.85635 c 0,-1.71394 -1.02836,-3.08509 -2.31381,-3.08509 -1.28545,0 -2.31381,1.37115 -2.31381,3.08509 0,1.71394 1.02836,3.08508 2.31381,3.08508 1.28545,0 2.31381,-1.37114 2.31381,-3.08508 z m 7.71271,9.8821 c 0,-1.35202 1.38829,-2.82126 3.08508,-3.26499 1.6968,-0.44372 3.08508,-1.50091 3.08508,-2.3493 0,-0.84841 -1.38924,-1.17926 -3.0872,-0.73522 -1.69798,0.44402 -2.69822,0.17791 -2.22277,-0.59137 0.47543,-0.76927 2.1358,-1.39868 3.68971,-1.39868 2.08048,0 2.99142,1.42327 3.45557,5.39889 0.58774,5.03446 0.33883,5.3989 -3.68759,5.3989 -2.9225,0 -4.31788,-0.79441 -4.31788,-2.45823 z m 6.17016,-0.62685 c 0,-0.84841 -1.04121,-1.54255 -2.31381,-1.54255 -1.2726,0 -2.31381,0.69414 -2.31381,1.54255 0,0.84839 1.04121,1.54254 2.31381,1.54254 1.2726,0 2.31381,-0.69415 2.31381,-1.54254 z m 6.35524,0.3458 c -1.80035,-3.36399 0.48784,-8.05851 3.92783,-8.05851 1.65764,0 2.16359,-0.96933 1.61032,-3.08508 -0.52435,-2.00509 -0.0474,-3.08509 1.36263,-3.08509 1.57492,0 2.1694,2.11352 2.1694,7.71271 0,4.2699 0.71018,7.71271 1.59095,7.71271 2.58521,0 3.53644,-4.48061 1.47783,-6.96108 -1.54251,-1.85861 -1.46089,-2.29417 0.42993,-2.29417 1.51893,0 2.55402,1.88527 2.96422,5.39889 l 0.63029,5.3989 -7.3487,0 c -5.46073,0 -7.72533,-0.70376 -8.8147,-2.73928 z m 5.9851,-2.65962 c 0,-3.93834 -2.1054,-5.14693 -3.90202,-2.23995 -1.28318,2.07626 0.24079,6.09631 2.31107,6.09631 0.87503,0 1.59095,-1.73537 1.59095,-3.85636 z m 13.88287,1.85105 c 0,-1.95132 -0.83297,-4.38081 -1.85105,-5.39889 -1.43971,-1.43971 -1.26831,-1.85105 0.77127,-1.85105 1.88532,0 2.62232,1.30057 2.62232,4.62762 0,3.22976 0.75182,4.62763 2.4889,4.62763 1.888,0 2.32491,-1.11723 1.80968,-4.62763 -0.37355,-2.5452 -0.1812,-4.62762 0.42744,-4.62762 0.60864,0 1.39024,2.4295 1.73691,5.39889 0.58774,5.03446 0.33883,5.3989 -3.68759,5.3989 -3.47726,0 -4.31788,-0.69071 -4.31788,-3.54785 z m 13.49724,2.52625 c 1.0605,-0.42791 2.79584,-0.42791 3.85636,0 1.06049,0.42791 0.1928,0.77805 -1.92819,0.77805 -2.12099,0 -2.98868,-0.35014 -1.92817,-0.77805 z m 1.54254,-3.72958 c -3.90025,-2.27169 -3.3993,-6.08269 0.77128,-5.86768 2.61177,0.1346 2.80265,0.35353 0.77127,0.88438 -3.29775,0.8618 -3.59014,3.56431 -0.38565,3.56431 1.2726,0 2.31381,0.69414 2.31381,1.54254 0,1.86075 -0.0679,1.85833 -3.47071,-0.12356 z m -22.75249,-10.67424 c 0,-0.8484 0.69415,-1.54254 1.54254,-1.54254 0.84841,0 1.54254,0.69414 1.54254,1.54254 0,0.84839 -0.69413,1.54255 -1.54254,1.54255 -0.84839,0 -1.54254,-0.69416 -1.54254,-1.54255 z m 191.7362,48.07153 10.33968,-4.68824 -4.0525,-11.27949 c -9.02981,-25.13299 -22.85348,-48.38331 -41.26406,-69.40289 -29.33158,-33.48824 -66.22859,-55.94168 -111.7617,-68.01189 -17.38501,-4.60854 -19.14185,-4.77538 -51.16778,-4.85944 -31.00793,-0.0814 -34.22234,0.18078 -49.42931,4.03152 -56.28889,14.25357 -101.21586,45.26265 -132.5639,91.49702 -13.04633,19.24164 -28.42299,53.34157 -25.32687,56.16588 0.76495,0.69779 7.84766,3.40364 15.73938,6.01305 13.00041,4.29856 14.43314,4.49846 15.24834,2.12741 10.76355,-31.30609 25.59127,-54.77325 48.34261,-76.50976 29.91785,-28.58335 69.57424,-46.80686 108.41114,-49.81872 l 12.04347,-0.934 3.02764,-5.93469 c 1.6652,-3.26407 3.31621,-5.93468 3.66888,-5.93468 0.35267,0 2.20175,2.77657 4.10905,6.17016 3.17344,5.64638 4.0099,6.17017 9.85339,6.17017 17.91527,0 53.10339,9.16296 72.48722,18.87562 26.20746,13.13177 50.85506,33.5307 67.46451,55.83521 9.92607,13.32951 23.12811,39.03737 25.94531,50.52227 2.01376,8.20957 0.69827,8.21196 18.8855,-0.0346 z M 270.2182,624.85788 c -0.35351,-1.0605 -1.56826,-1.92817 -2.69946,-1.92817 -1.13119,0 -2.34594,0.86767 -2.69944,1.92817 -0.38235,1.14702 0.71128,1.92818 2.69944,1.92818 1.98816,0 3.0818,-0.78116 2.69946,-1.92818 z M 569.08558,456.31411 c 0,-5.12067 -0.51596,-6.14903 -3.08508,-6.14903 -2.24172,0 -3.22195,1.19525 -3.58574,4.37229 -0.68764,6.00495 0.74993,9.06605 3.96671,8.44655 2.0378,-0.39244 2.70411,-2.03595 2.70411,-6.66981 z m 236.78009,238.57852 0,-10.56305 4.96786,-0.14133 c 6.25639,-0.17789 8.91501,1.9927 8.91501,7.27852 0,5.92211 -3.42855,10.03458 -7.48204,8.97458 -2.53634,-0.6632 -3.31575,-0.17578 -3.31575,2.07365 0,1.61738 -0.69415,2.94067 -1.54254,2.94067 -0.87819,0 -1.54254,-4.54937 -1.54254,-10.56304 z m 10.02651,-2.56969 c 0,-5.12068 -0.51594,-6.14904 -3.08508,-6.14904 -2.24171,0 -3.22195,1.19526 -3.58574,4.3723 -0.68764,6.00495 0.74993,9.06604 3.96672,8.44654 2.03779,-0.39244 2.7041,-2.03594 2.7041,-6.6698 z m -549.91598,1.02715 0,-10.56305 4.96786,-0.14134 c 6.2564,-0.17783 8.91501,1.99275 8.91501,7.27858 0,5.92209 -3.42855,10.03458 -7.48204,8.97458 -2.53633,-0.66329 -3.31575,-0.17586 -3.31575,2.07357 0,1.61737 -0.69413,2.94067 -1.54254,2.94067 -0.87818,0 -1.54254,-4.54937 -1.54254,-10.56305 z m 10.02652,-2.56969 c 0,-5.12068 -0.51594,-6.14904 -3.08508,-6.14904 -2.24171,0 -3.22195,1.19525 -3.58576,4.3723 -0.68762,6.00495 0.74995,9.06604 3.96673,8.44654 2.0378,-0.39244 2.70411,-2.03594 2.70411,-6.6698 z m 503.47804,7.53899 c -1.14509,-1.37975 -2.082,-5.10987 -2.082,-8.28913 0,-6.44166 2.77208,-10.79779 6.87133,-10.79779 4.13199,0 6.59086,4.02836 6.59086,10.79779 0,9.64347 -6.39212,14.29938 -11.38019,8.28913 z m 8.44976,-3.84549 c 2.70199,-7.68311 -3.14777,-17.88593 -6.87757,-11.9955 -1.58686,2.50611 -1.84251,10.80133 -0.44512,14.44285 1.40009,3.6486 5.68215,2.21747 7.32269,-2.44735 z m 36.44564,-2.12983 c 0,-4.66619 0.69415,-8.48398 1.54254,-8.48398 0.8484,0 1.54254,3.81779 1.54254,8.48398 0,4.66619 -0.69414,8.48398 -1.54254,8.48398 -0.84839,0 -1.54254,-3.81779 -1.54254,-8.48398 z m -575.36791,-2.95655 c 0,-6.47505 -0.66681,-10.16703 -1.92817,-10.676 -1.06051,-0.42791 -0.36636,-0.83284 1.54254,-0.8998 3.28031,-0.11501 3.47071,0.47058 3.47071,10.676 0,6.17016 -0.6611,10.79779 -1.54254,10.79779 -0.8681,0 -1.54254,-4.32769 -1.54254,-9.89799 z m 35.47845,1.41401 c 0,-4.66619 0.69415,-8.48398 1.54254,-8.48398 0.84841,0 1.54254,3.81779 1.54254,8.48398 0,4.66619 -0.69413,8.48398 -1.54254,8.48398 -0.84839,0 -1.54254,-3.81779 -1.54254,-8.48398 z m 539.88946,-11.56906 c 0,-0.84841 0.69415,-1.54254 1.54254,-1.54254 0.8484,0 1.54254,0.69413 1.54254,1.54254 0,0.84839 -0.69414,1.54254 -1.54254,1.54254 -0.84839,0 -1.54254,-0.69415 -1.54254,-1.54254 z M 284.4867,677.68993 c 0,-0.84841 0.69415,-1.54255 1.54254,-1.54255 0.84841,0 1.54254,0.69414 1.54254,1.54255 0,0.84839 -0.69413,1.54254 -1.54254,1.54254 -0.84839,0 -1.54254,-0.69415 -1.54254,-1.54254 z m 633.2691,-29.21786 c -0.49361,-0.79868 1.02655,-1.3193 3.3781,-1.15691 3.29808,0.22772 4.3827,-0.45293 4.74407,-2.97713 0.3932,-2.74642 -0.15716,-3.15276 -3.42419,-2.52824 -5.19998,0.99405 -8.47591,-5.30713 -5.8058,-11.16738 1.39,-3.05072 2.89185,-3.85635 7.18903,-3.85635 l 5.43196,0 0,9.71801 c 0,5.50173 -0.80309,10.5211 -1.85105,11.56906 -2.20099,2.20099 -8.39045,2.45655 -9.66212,0.39894 z m 7.65682,-13.99443 c 0,-4.34941 -0.58994,-5.37777 -3.08508,-5.37777 -2.05391,0 -3.25475,1.19758 -3.5927,3.58291 -0.73485,5.18676 0.86868,8.29135 3.97368,7.69339 1.96044,-0.37755 2.7041,-1.99971 2.7041,-5.89853 z m -93.32375,-1.52141 0,-10.79779 6.5558,0.24687 c 5.68287,0.21398 5.88828,0.3297 1.54254,0.86901 -4.07092,0.50519 -5.01326,1.30935 -5.01326,4.27829 0,2.80438 0.98825,3.80587 4.24199,4.29878 l 4.24199,0.6426 -4.24199,0.23111 c -3.61215,0.1968 -4.24199,0.90371 -4.24199,4.76102 0,3.95468 0.63661,4.6089 5.01326,5.15202 4.34574,0.5393 4.14033,0.65502 -1.54254,0.869 l -6.5558,0.24688 0,-10.79779 z m 15.42541,2.4679 0,-8.32989 5.78453,0.23154 5.78453,0.23155 0.16301,8.48398 c 0.1393,7.24881 0.069,7.47339 -0.48302,1.54254 -0.35531,-3.81778 -1.26692,-7.57145 -2.0258,-8.34147 -2.57193,-2.6097 -6.13816,2.34639 -6.13816,8.53034 0,3.28972 -0.69414,5.9813 -1.54254,5.9813 -0.8484,0 -1.54254,-3.74845 -1.54254,-8.32989 z m 16.63848,4.36642 c -2.71094,-5.94988 0.0853,-12.24972 5.40277,-12.1724 3.34752,0.0487 4.18195,-0.64386 4.18195,-3.47073 0,-1.94234 0.69415,-3.53152 1.54255,-3.53152 0.88822,0 1.54254,4.8014 1.54254,11.31912 l 0,11.31911 -5.45246,0.20499 c -4.42857,0.16647 -5.78386,-0.52241 -7.21735,-3.66857 z m 8.81345,-4.54164 c 0,-5.12068 -0.51595,-6.14904 -3.08508,-6.14904 -2.24171,0 -3.22195,1.19526 -3.58574,4.3723 -0.68764,6.00495 0.74993,9.06604 3.96672,8.44654 2.03779,-0.39244 2.7041,-2.03594 2.7041,-6.6698 z m 9.95097,-1.86015 c 4.63264,-10.85942 6.87224,-13.21424 8.17349,-8.59395 0.42792,1.51939 2.24153,6.40677 4.03025,10.86086 1.93297,4.81332 2.57705,8.09835 1.58777,8.09835 -0.91545,0 -2.02749,-1.38829 -2.47122,-3.08509 -0.60216,-2.30264 -2.10405,-3.08508 -5.9218,-3.08508 -3.7603,0 -5.37438,0.8171 -6.09421,3.08508 -0.53854,1.6968 -1.59722,3.08509 -2.35264,3.08509 -0.75541,0 0.61636,-4.66437 3.04836,-10.36526 z m 7.55713,-1.97507 c -0.88727,-2.54521 -1.82448,-4.62763 -2.08268,-4.62763 -0.25821,0 -1.19541,2.08242 -2.08268,4.62763 -1.50004,4.30305 -1.35397,4.62762 2.08268,4.62762 3.43664,0 3.58272,-0.32457 2.08268,-4.62762 z m 9.48638,4.01044 0,-8.32989 5.78453,0.23154 5.78453,0.23155 0.16301,8.48398 c 0.13929,7.24881 0.0689,7.47339 -0.48302,1.54254 -0.35531,-3.81778 -1.26692,-7.57145 -2.0258,-8.34147 -2.57193,-2.6097 -6.13816,2.34639 -6.13816,8.53034 0,3.28972 -0.69415,5.9813 -1.54254,5.9813 -0.8484,0 -1.54255,-3.74845 -1.54255,-8.32989 z m 30.85083,-3.23917 c 0,-6.68435 0.65129,-11.56906 1.54254,-11.56906 0.89125,0 1.54254,4.88471 1.54254,11.56906 0,6.68434 -0.65129,11.56906 -1.54254,11.56906 -0.89125,0 -1.54254,-4.88472 -1.54254,-11.56906 z m 8.59416,9.14505 c -4.48812,-4.48811 -1.89798,-14.54395 3.74617,-14.54395 2.83925,0 6.17016,4.1089 6.17016,7.6113 0,0.90417 -2.13333,1.64395 -4.74072,1.64395 -3.69277,0 -4.62112,0.59673 -4.19963,2.69944 0.35534,1.77271 1.94331,2.68165 4.62548,2.64759 2.2464,-0.0285 3.7482,0.49209 3.33732,1.15692 -1.26043,2.03939 -6.38017,1.34338 -8.93878,-1.21525 z m 6.5376,-9.5307 c -0.28593,-1.48469 -1.54207,-2.69944 -2.79143,-2.69944 -1.24937,0 -2.50551,1.21475 -2.79143,2.69944 -0.36475,1.89401 0.46813,2.69946 2.79143,2.69946 2.3233,0 3.15617,-0.80545 2.79143,-2.69946 z m -695.81734,6.80329 c 0.63031,-3.2972 0.2532,-3.64321 -3.24235,-2.97499 -5.26363,1.0062 -8.55733,-5.25451 -5.86872,-11.15536 1.3962,-3.06434 2.88716,-3.85635 7.25952,-3.85635 l 5.50244,0 -0.45611,10.28922 c -0.25861,5.83347 -1.20355,10.53592 -2.18207,10.85893 -1.07335,0.35428 -1.45628,-0.84112 -1.01271,-3.16145 z m -0.34642,-10.29512 c 0,-4.34941 -0.58995,-5.37777 -3.08509,-5.37777 -2.0539,0 -3.25475,1.19757 -3.59269,3.58291 -0.73486,5.18675 0.86867,8.29135 3.97367,7.69339 1.96045,-0.37755 2.70411,-1.99971 2.70411,-5.89853 z m -111.10119,7.672 c -0.64255,-1.03965 0.40625,-1.25353 2.97967,-0.60764 6.66065,1.6717 7.12345,-3.51213 0.77923,-8.72807 -4.39648,-3.61458 -4.98197,-4.78477 -3.55536,-7.10571 1.97777,-3.21762 6.45972,-4.48319 8.5333,-2.40961 0.87765,0.87765 0.0885,1.38011 -2.04388,1.30158 -5.46172,-0.20118 -5.33825,4.676 0.19076,7.53515 4.89483,2.53122 6.07974,6.56039 2.8725,9.76762 -2.27495,2.27495 -8.40686,2.42998 -9.75622,0.24668 z m 18.8058,0.57601 c -0.5656,-0.5656 -1.02836,-4.03631 -1.02836,-7.71271 0,-3.6764 -0.72152,-6.68434 -1.60336,-6.68434 -0.92441,0 -0.7611,-0.90751 0.38563,-2.14312 1.09394,-1.1787 2.33607,-1.62985 2.76027,-1.00256 0.42419,0.62731 1.81248,1.53689 3.08508,2.02134 1.84302,0.70157 1.76457,0.90555 -0.38563,1.00255 -2.09479,0.0946 -2.69945,1.48671 -2.69945,6.21531 0,4.17602 0.84946,6.58826 2.69945,7.6658 2.28619,1.33157 2.32555,1.57946 0.25709,1.61918 -1.3433,0.0258 -2.90513,-0.41585 -3.47072,-0.98145 z m 8.74052,-1.40059 c -1.13001,-2.94479 2.19377,-6.8263 5.8454,-6.8263 3.17542,0 3.56756,-1.17896 1.48573,-4.46677 -0.84673,-1.33725 -2.44498,-1.74094 -4.21837,-1.06551 -2.15089,0.81921 -2.41994,0.64874 -1.0908,-0.69114 0.97039,-0.97825 3.05281,-1.53399 4.62762,-1.23499 2.18646,0.41509 2.97958,2.1753 3.35524,7.44639 0.27056,3.79652 1.21855,7.35185 2.10664,7.90072 0.88808,0.54886 -1.28047,1.0379 -4.819,1.08674 -4.26256,0.0587 -6.72349,-0.66643 -7.29246,-2.14914 z m 8.47835,-2.74211 c 0.39244,-2.03781 -0.24057,-2.67084 -2.27839,-2.27839 -1.552,0.29889 -3.06635,1.81326 -3.36525,3.36526 -0.39244,2.03782 0.24057,2.67084 2.27838,2.27839 1.55201,-0.29888 3.06636,-1.81326 3.36526,-3.36526 z m 6.43343,-3.07817 0,-8.24923 5.01326,-0.0879 c 4.44328,-0.0778 4.61866,0.0652 1.54255,1.25811 -2.89077,1.12108 -3.47073,2.51424 -3.47073,8.33714 0,3.84514 -0.69414,6.99115 -1.54254,6.99115 -0.84839,0 -1.54254,-3.71216 -1.54254,-8.24923 z m 14.91123,7.22087 c -0.5656,-0.5656 -1.02836,-4.03631 -1.02836,-7.71271 0,-3.6764 -0.72152,-6.68434 -1.60336,-6.68434 -0.9244,0 -0.7611,-0.90751 0.38563,-2.14312 1.09395,-1.1787 2.33608,-1.62985 2.76027,-1.00256 0.4242,0.62731 1.81248,1.53689 3.08508,2.02134 1.84302,0.70157 1.76457,0.90555 -0.38562,1.00255 -2.0948,0.0946 -2.69946,1.48671 -2.69946,6.21531 0,4.17602 0.84946,6.58826 2.69946,7.6658 2.28618,1.33157 2.32554,1.57946 0.25709,1.61918 -1.34331,0.0258 -2.90513,-0.41585 -3.47073,-0.98145 z m 11.23641,-9.33689 c 4.63265,-10.85943 6.87225,-13.21424 8.1735,-8.59396 0.42791,1.51939 2.24153,6.40677 4.03024,10.86086 1.93299,4.81332 2.57705,8.09835 1.58777,8.09835 -0.91544,0 -2.02748,-1.38829 -2.47121,-3.08508 -0.60216,-2.30264 -2.10406,-3.08508 -5.92181,-3.08508 -3.76028,0 -5.37436,0.81709 -6.0942,3.08508 -0.53855,1.69679 -1.59723,3.08508 -2.35264,3.08508 -0.75541,0 0.61635,-4.66436 3.04835,-10.36525 z m 7.55712,-1.97508 c -0.88725,-2.5452 -1.82446,-4.62762 -2.08267,-4.62762 -0.2582,0 -1.19541,2.08242 -2.08266,4.62762 -1.50006,4.30306 -1.35399,4.62762 2.08266,4.62762 3.43666,0 3.58273,-0.32456 2.08267,-4.62762 z m 9.4864,4.01044 0,-8.32988 5.78453,0.23153 5.78453,0.23156 0.16305,8.48397 c 0.1392,7.24881 0.0689,7.47339 -0.48301,1.54255 -0.35532,-3.81779 -1.26693,-7.57146 -2.02581,-8.34148 -2.57194,-2.6097 -6.13816,2.34639 -6.13816,8.53035 0,3.28972 -0.69414,5.98129 -1.54254,5.98129 -0.84839,0 -1.54255,-3.74845 -1.54255,-8.32989 z m 30.85082,-3.23917 c 0,-6.68435 0.65129,-11.56906 1.54254,-11.56906 0.89126,0 1.54254,4.88471 1.54254,11.56906 0,6.68435 -0.65128,11.56906 -1.54254,11.56906 -0.89125,0 -1.54254,-4.88471 -1.54254,-11.56906 z M 508.15519,454.92124 c 0,-6.47506 -0.66678,-10.16702 -1.92816,-10.676 -1.06052,-0.42793 -0.36636,-0.83284 1.54254,-0.89983 3.2803,-0.11517 3.47071,0.47058 3.47071,10.67602 0,6.17016 -0.66108,10.79779 -1.54254,10.79779 -0.86811,0 -1.54255,-4.32769 -1.54255,-9.89798 z m 13.88288,8.35544 c 0,-0.84841 0.69415,-1.54254 1.54254,-1.54254 0.8484,0 1.54254,0.69413 1.54254,1.54254 0,0.84839 -0.69414,1.54254 -1.54254,1.54254 -0.84839,0 -1.54254,-0.69415 -1.54254,-1.54254 z m 10.2328,0.33378 c -0.41089,-0.66483 1.10998,-1.18543 3.37968,-1.15692 5.89047,0.074 6.83332,-6.34506 1.1418,-7.77355 -3.27407,-0.82173 -3.95649,-1.89537 -3.95649,-6.22468 0,-4.92145 0.29728,-5.21796 5.01326,-5.00054 4.66608,0.21511 4.71949,0.27561 0.77127,0.87372 -3.28952,0.49832 -4.24199,1.48548 -4.24199,4.3965 0,2.22501 0.8975,3.7539 2.20362,3.7539 2.41095,0 7.05163,4.06059 7.05163,6.17016 0,4.10767 -9.36358,8.19615 -11.36278,4.96141 z m 45.29869,-7.27522 c 0,-4.66619 0.69415,-8.48398 1.54254,-8.48398 0.8484,0 1.54254,3.81779 1.54254,8.48398 0,4.66619 -0.69414,8.48398 -1.54254,8.48398 -0.84839,0 -1.54254,-3.81779 -1.54254,-8.48398 z m 0,-13.1116 c 0,-0.84841 0.69415,-1.54254 1.54254,-1.54254 0.8484,0 1.54254,0.69413 1.54254,1.54254 0,0.84839 -0.69414,1.54254 -1.54254,1.54254 -0.84839,0 -1.54254,-0.69415 -1.54254,-1.54254 z"
       id="path3347"
       inkscape:connector-curvature="0" />
    <path
       style="fill:#00ffff;fill-opacity:1;stroke:none"
       d="m 725.278,638.22515 c -0.3467,-0.56097 -1.84252,-4.65477 -3.3241,-9.09734 -3.4715,-10.40958 -15.99707,-34.34516 -23.4079,-44.73105 -11.423,-16.00873 -30.1896,-33.72249 -49.34074,-46.57264 -23.27831,-15.61942 -58.07102,-27.54368 -88.26121,-30.24914 l -9.94492,-0.89121 -3.72935,-5.88191 c -2.05114,-3.23506 -4.06,-5.89221 -4.46412,-5.9048 -0.40412,-0.0132 -2.21756,2.70148 -4.02986,6.03127 l -3.29508,6.05416 -10.26597,0.88194 c -15.35685,1.31928 -28.17829,4.02512 -42.20097,8.9061 -51.22355,17.82976 -91.6518,56.0985 -111.53532,105.57755 -2.94063,7.31761 -5.7668,12.5426 -6.9141,12.78269 -1.97079,0.41245 -23.4168,-6.34763 -26.67485,-8.40827 -2.14715,-1.35801 -0.7651,-6.88242 5.15091,-20.58948 11.09965,-25.71727 28.12843,-50.10623 49.04088,-70.23735 28.91026,-27.83007 60.61257,-45.26331 102.35605,-56.28604 l 14.29583,-3.77494 34.1857,0.0999 c 33.66154,0.0984 34.40486,0.15614 48.4815,3.77494 17.26536,4.43848 35.43247,11.12497 49.84339,18.34508 45.61837,22.85558 84.90347,65.77727 103.47255,113.05093 7.2718,18.51275 7.64471,16.80861 -4.86722,22.24278 -14.23062,6.18063 -13.84508,6.0516 -14.5711,4.87689 z"
       id="path3351"
       inkscape:connector-curvature="0" />
    <rect
       style="fill:#ffffff;fill-opacity:1;stroke:none"
       id="rect3353"
       width="94.296234"
       height="31.601065"
       x="494.80002"
       y="576.31451" />
    <text
       xml:space="preserve"
       style="font-style:normal;font-weight:normal;font-size:42.2899704px;line-height:125%;font-family:sans-serif;letter-spacing:0px;word-spacing:0px;fill:#000000;fill-opacity:1;stroke:none;stroke-width:1px;stroke-linecap:butt;stroke-linejoin:miter;stroke-opacity:1"
       x="503.29413"
       y="604.89191"
       id="text3355"
       sodipodi:linespacing="125%"><tspan
         sodipodi:role="line"
         id="tspan3357"
         x="503.29413"
         y="604.89191"
         style="font-style:normal;font-variant:normal;font-weight:normal;font-stretch:normal;font-family:Tahoma;-inkscape-font-specification:Tahoma">Raio</tspan></text>
    <rect
       style="fill:#ffffff;fill-opacity:1;stroke:none"
       id="rect3353-7"
       width="94.296234"
       height="31.601065"
       x="696.40466"
       y="883.12036" />
    <text
       xml:space="preserve"
       style="font-style:normal;font-weight:normal;font-size:42.2899704px;line-height:125%;font-family:sans-serif;letter-spacing:0px;word-spacing:0px;fill:#000000;fill-opacity:1;stroke:none;stroke-width:1px;stroke-linecap:butt;stroke-linejoin:miter;stroke-opacity:1"
       x="704.8988"
       y="911.69775"
       id="text3355-1"
       sodipodi:linespacing="125%"><tspan
         sodipodi:role="line"
         id="tspan3357-7"
         x="704.8988"
         y="911.69775"
         style="font-style:normal;font-variant:normal;font-weight:normal;font-stretch:normal;font-family:Tahoma;-inkscape-font-specification:Tahoma">Centro</tspan></text>
    <rect
       style="fill:#ffffff;fill-opacity:1;stroke:none"
       id="rect3353-7-5"
       width="141.61333"
       height="43.768322"
       x="828.09143"
       y="616.9682" />
    <text
       xml:space="preserve"
       style="font-style:normal;font-weight:normal;font-size:30.99826431px;line-height:125%;font-family:sans-serif;letter-spacing:0px;word-spacing:0px;fill:#000000;fill-opacity:1;stroke:none;stroke-width:1px;stroke-linecap:butt;stroke-linejoin:miter;stroke-opacity:1"
       x="828.41895"
       y="638.41443"
       id="text3355-1-7"
       sodipodi:linespacing="125%"><tspan
         sodipodi:role="line"
         id="tspan3357-7-7"
         x="828.41895"
         y="638.41443"
         style="font-style:normal;font-variant:normal;font-weight:normal;font-stretch:normal;font-family:Tahoma;-inkscape-font-specification:Tahoma">Ângulo Inicial</tspan></text>
    <rect
       style="fill:#ffffff;fill-opacity:1;stroke:none"
       id="rect3353-7-5-4"
       width="141.61333"
       height="43.768322"
       x="134.68306"
       y="609.521" />
    <text
       xml:space="preserve"
       style="font-style:normal;font-weight:normal;font-size:30.99826431px;line-height:125%;font-family:sans-serif;letter-spacing:0px;word-spacing:0px;fill:#000000;fill-opacity:1;stroke:none;stroke-width:1px;stroke-linecap:butt;stroke-linejoin:miter;stroke-opacity:1"
       x="95.850044"
       y="639.50348"
       id="text3355-1-7-9"
       sodipodi:linespacing="125%"><tspan
         sodipodi:role="line"
         id="tspan3357-7-7-0"
         x="95.850044"
         y="639.50348"
         style="font-style:normal;font-variant:normal;font-weight:normal;font-stretch:normal;font-family:Tahoma;-inkscape-font-specification:Tahoma">Ângulo Final</tspan></text>
    <text
       xml:space="preserve"
       style="font-style:normal;font-weight:normal;font-size:30.99826431px;line-height:125%;font-family:sans-serif;letter-spacing:0px;word-spacing:0px;fill:#000000;fill-opacity:1;stroke:none;stroke-width:1px;stroke-linecap:butt;stroke-linejoin:miter;stroke-opacity:1"
       x="212.98607"
       y="446.17932"
       id="text3355-1-7-9-0"
       sodipodi:linespacing="125%"><tspan
         sodipodi:role="line"
         id="tspan3357-7-7-0-4"
         x="212.98607"
         y="446.17932"
         style="font-style:normal;font-variant:normal;font-weight:normal;font-stretch:normal;font-family:Tahoma;-inkscape-font-specification:Tahoma">Sentido</tspan><tspan
         sodipodi:role="line"
         x="212.98607"
         y="484.92715"
         style="font-style:normal;font-variant:normal;font-weight:normal;font-stretch:normal;font-family:Tahoma;-inkscape-font-specification:Tahoma"
         id="tspan3470">anti-horário</tspan></text>
  </g>
</svg>
